<svg id="pattern" xmlns="http://www.w3.org/2000/svg" width="86.438" height="376" viewBox="0 0 86.438 376">
  <defs>
    <style>
      .cls-1 {
        fill: none;
      }

      .cls-1, .cls-2 {
        stroke: #bb9c66;
        stroke-width: 1px;
        fill-rule: evenodd;
      }

      .cls-2 {
        fill: #bb9c66;
      }
    </style>
  </defs>
  <path class="cls-1" d="M529.236,2587.08l-0.517-.51,30.7-30.61,0.517,0.52Zm18.6,17.09-0.529-.51-17.6,18.35,0.53,0.51Zm48.4-10.28-0.518-.52-30.073,30.1,0.519,0.52Zm-18.76-19.19-0.5-.53,16.813-16.03,0.5,0.53Zm18.245,12.52,0.515-.52-30.587-30.49-0.515.52Zm-18.526,17.02,0.528-.51,17.537,18.29-0.527.5ZM528.97,2594l0.517-.51,29.961,29.99-0.517.51Zm18.691-19.12,0.5-.52-16.75-15.97-0.5.52Zm14.942-3.36a18.215,18.215,0,1,1-18.275,18.22A18.248,18.248,0,0,1,562.6,2571.52Zm0-20.4a2.185,2.185,0,1,1-2.193,2.19A2.191,2.191,0,0,1,562.6,2551.12Zm0,72.86a2.19,2.19,0,1,1-2.193,2.19A2.191,2.191,0,0,1,562.6,2623.98Zm36.549-36.43a2.185,2.185,0,1,1-2.193,2.19A2.191,2.191,0,0,1,599.152,2587.55Zm-73.1,0a2.185,2.185,0,1,1-2.193,2.19A2.191,2.191,0,0,1,526.054,2587.55Z" transform="translate(-519.062 -2547.5)"/>
  <path class="cls-2" d="M525.688,2548l5.686,5.67-5.686,5.67L520,2553.67Zm73.1,0,5.685,5.67-5.685,5.67-5.686-5.67Zm-72.872,72.34,5.707,5.83-5.707,5.83-5.707-5.83Zm73.375,0,5.708,5.83L599.29,2632l-5.707-5.83Zm-73.6,71.66,5.686,5.67-5.686,5.67L520,2697.67Zm73.1,0,5.685,5.67-5.685,5.67-5.686-5.67Zm-72.872,72.34,5.707,5.83-5.707,5.83-5.707-5.83Zm73.375,0,5.708,5.83L599.29,2776l-5.707-5.83Zm-73.6,74.66,5.686,5.67-5.686,5.67L520,2844.67Zm73.1,0,5.685,5.67-5.685,5.67-5.686-5.67Zm-72.872,72.34,5.707,5.83-5.707,5.83-5.707-5.83Zm73.375,0,5.708,5.83L599.29,2923l-5.707-5.83Z" transform="translate(-519.062 -2547.5)"/>
  <path class="cls-1" d="M529.236,2659.08l-0.517-.51,30.7-30.61,0.517,0.52Zm18.6,17.09-0.529-.51-17.6,18.35,0.53,0.51Zm48.4-10.28-0.518-.52-30.073,30.1,0.519,0.52Zm-18.76-19.19-0.5-.53,16.813-16.03,0.5,0.53Zm18.245,12.52,0.515-.52-30.587-30.49-0.515.52Zm-18.526,17.02,0.528-.51,17.537,18.29-0.527.5ZM528.97,2666l0.517-.51,29.961,29.98-0.517.52Zm18.691-19.12,0.5-.52-16.75-15.97-0.5.52Zm14.942-3.36a18.215,18.215,0,1,1-18.275,18.22A18.248,18.248,0,0,1,562.6,2643.52Zm-36.688,48.82,5.707,5.83-5.707,5.83-5.707-5.83Zm73.375,0,5.708,5.83L599.29,2704l-5.707-5.83Zm-36.687,3.64a2.19,2.19,0,1,1-2.193,2.19A2.191,2.191,0,0,1,562.6,2695.98Zm36.549-36.43a2.185,2.185,0,1,1-2.193,2.19A2.191,2.191,0,0,1,599.152,2659.55Zm-73.1,0a2.185,2.185,0,1,1-2.193,2.19A2.191,2.191,0,0,1,526.054,2659.55Zm2.986,72.55-0.518-.52,30.781-30.59,0.518,0.52Zm18.644,17.08-0.531-.51L529.5,2767.01l0.531,0.51Zm48.529-10.27-0.52-.52-30.15,30.09,0.52,0.52ZM577.4,2719.72l-0.506-.52,16.856-16.03,0.506,0.53Zm18.292,12.52,0.517-.52-30.666-30.48-0.517.52Zm-18.573,17.01,0.528-.51,17.583,18.28-0.528.51Zm-48.349-10.23,0.518-.52,30.038,29.98-0.518.52Zm18.739-19.12,0.5-.52-16.793-15.96-0.5.52Zm14.98-3.35a18.205,18.205,0,1,1-18.321,18.21A18.264,18.264,0,0,1,562.493,2716.55Zm-36.782,48.8,5.722,5.82-5.722,5.83-5.722-5.83Zm73.565,0,5.722,5.82-5.722,5.83-5.722-5.83Zm-36.783,3.64a2.185,2.185,0,1,1-2.2,2.18A2.192,2.192,0,0,1,562.493,2768.99Zm36.644-36.42a2.185,2.185,0,1,1-2.2,2.19A2.194,2.194,0,0,1,599.137,2732.57Zm-73.287,0a2.185,2.185,0,1,1-2.2,2.19A2.194,2.194,0,0,1,525.85,2732.57Zm2.994,72.52-0.519-.52,30.86-30.57,0.52,0.51Zm18.692,17.07-0.532-.51-17.7,18.34,0.532,0.51Zm48.654-10.27-0.521-.51-30.228,30.07,0.521,0.52Zm-18.857-19.17-0.508-.53,16.9-16.02,0.508,0.53Zm18.339,12.5,0.518-.51-30.745-30.46-0.518.51Zm-18.621,17.01,0.53-.5L595.209,2840l-0.53.5Zm-48.474-10.22,0.52-.52,30.115,29.96-0.519.52Zm18.787-19.11,0.506-.53-16.836-15.95-0.506.52Zm15.02-3.36a18.2,18.2,0,1,1-18.369,18.2A18.286,18.286,0,0,1,562.384,2789.54Zm-36.878,48.78,5.737,5.83-5.737,5.82-5.736-5.82Zm73.755,0,5.737,5.83-5.737,5.82-5.737-5.82Zm-36.877,3.64a2.185,2.185,0,1,1-2.205,2.19A2.2,2.2,0,0,1,562.384,2841.96Zm36.738-36.4a2.185,2.185,0,1,1-2.2,2.18A2.195,2.195,0,0,1,599.122,2805.56Zm-73.476,0a2.185,2.185,0,1,1-2.2,2.18A2.195,2.195,0,0,1,525.646,2805.56Zm3,72.49-0.521-.52,30.94-30.56,0.521,0.51Zm18.739,17.06-0.533-.51-17.74,18.33,0.533,0.51Zm48.78-10.26-0.522-.52-30.306,30.06,0.522,0.52Zm-18.905-19.17-0.51-.53,16.944-16.01,0.509,0.53Zm18.386,12.5,0.519-.51-30.824-30.45-0.519.51Zm-18.669,17,0.531-.5,17.674,18.26-0.531.51Zm-48.6-10.22,0.521-.52,30.193,29.96-0.521.51Zm18.836-19.1,0.507-.52-16.88-15.95-0.507.52Zm15.058-3.35a18.191,18.191,0,1,1-18.417,18.19A18.3,18.3,0,0,1,562.274,2862.51ZM525.3,2911.27l5.752,5.82-5.752,5.82-5.751-5.82Zm73.945,0,5.752,5.82-5.752,5.82-5.751-5.82Zm-36.972,3.63a2.185,2.185,0,1,1-2.21,2.19A2.2,2.2,0,0,1,562.274,2914.9Zm36.833-36.38a2.18,2.18,0,1,1-2.21,2.18A2.192,2.192,0,0,1,599.107,2878.52Zm-73.666,0a2.18,2.18,0,1,1-2.21,2.18A2.192,2.192,0,0,1,525.441,2878.52Z" transform="translate(-519.062 -2547.5)"/>
</svg>
